<svg xmlns:xlink="http://www.w3.org/1999/xlink" width="24" height="24"
  xmlns="http://www.w3.org/2000/svg">
  <defs>
    <symbol viewBox="0 0 24 24" id="v_comments">
      <path fill-rule="evenodd" d="M6.62 6.772C5.338 7.894 4.5 9.548 4.5 11.728c0 2.18.837 3.835 2.12 4.956 1.3 1.135 3.117 1.772 5.126 1.772 1.225 0 2.113-.08 3.025-.444.734-.292 1.507-.233 2.144-.019l.008.003 2.486.88-.862-2.746-.005-.02c-.167-.619-.247-1.385.023-2.142.27-.754.427-1.382.427-2.24 0-2.18-.836-3.834-2.12-4.956C15.572 5.637 13.755 5 11.746 5c-2.009 0-3.825.637-5.125 1.772zM5.306 5.266C7.021 3.767 9.327 3 11.746 3c2.42 0 4.725.767 6.441 2.266 1.732 1.512 2.805 3.722 2.805 6.462 0 1.16-.226 2.025-.543 2.913-.082.23-.084.539.019.93l.97 3.09.005.02c.189.702-.11 1.346-.471 1.73-.353.378-1.02.764-1.783.509l-.008-.003-2.91-1.03c-.301-.1-.57-.093-.76-.017-1.268.505-2.46.586-3.765.586-2.419 0-4.725-.767-6.44-2.266C3.572 16.678 2.5 14.469 2.5 11.729c0-2.74 1.073-4.95 2.805-6.462z" clip-rule="evenodd"></path>
    </symbol>
  </defs>
  <use xlink:href="#v_comments" fill="currentColor"></use>
</svg>