<svg xmlns:xlink="http://www.w3.org/1999/xlink"
  xmlns="http://www.w3.org/2000/svg" width="300" height="300">
  <defs>
    <symbol viewBox="0 0 300 300" id="andropov_play_coub">
      <path d="M150 300c82.843 0 150-67.157 150-150S232.843 0 150 0 0 67.157 0 150s67.157 150 150 150z"></path>
      <path d="M195.599 132.517c-1.858-.506-4.053-1.173-8.103 2.845-1.967 1.948.044 1.747-.172 1.843-1.21.533-.675-6.531-5.222-9.376-4.219-2.637-7.593-.502-10.048 1.486-1.463 1.195-1.366 1.555-2.276-1.151-.25-.754-1.695-6.003-3.884-7.7-3.881-3.016-8.822-2.194-10.792 0-2.87 3.18-3.336 5.432-4.478 5.525-1.019.081-1.179-.84-1.263-1.34-.557-3.32-.979-14.401-.979-16.939 0-3.953 1.858-29.874 1.313-32.948-.653-3.757-1.357-6.497-5.172-7.909-3.734-1.383-7.177.975-8.49 2.963-2.005 3.028-3.343 21.429-4.006 27.817-.647 6.289-1.313 16.514-1.151 27.63.166 11.12-3.13 32.911-3.949 29.942-.826-2.96-4.772-9.4-7.734-13.108-2.961-3.704-9.556-8.829-16.636-11.494-7.09-2.671-12.355-1.483-13.178 2.37-.625 2.929 2.743 4.685 4.61 5.932 2.43 1.61 7.905 5.777 9.55 9.189 1.645 3.41 2.633 7.558 3.624 9.044.988 1.477 2.449 5.234 4.397 10.077 2.192 5.482 4.728 8.997 9.328 13.834 9.472 9.965 14.082 17.407 15.645 22.036.698 2.045 3.975 7.998 3.509 15.081v11.838h48.681s.065-16.153-.06-18.316c-.266-4.467 3.48-7.12 8.915-18.686 5.438-11.556 4.225-22.232 5.329-26.972.963-4.179 1.648-11.185 1.126-16.102-.254-2.46-.332-5.864-1.686-9.708-1.542-4.387-3.39-6.794-6.748-7.703z" fill="#fff"></path>
    </symbol>
  </defs>
  <use xlink:href="#andropov_play_coub" fill="currentColor"></use>
</svg>