<svg xmlns:xlink="http://www.w3.org/1999/xlink"
  xmlns="http://www.w3.org/2000/svg" height="24" width="24">
  <defs>
    <symbol viewBox="0 0 24 24" id="v_delete_thread">
      <path fill-rule="evenodd" clip-rule="evenodd" d="M13.682 3a1.968 1.968 0 00-1.968 1.968v.937H9.809a1 1 0 00-.031 2V10.842c0 .857 0 1.598.08 2.193.085.638.28 1.254.78 1.754s1.116.695 1.754.78c.595.08 1.336.08 2.193.08h.13c.858 0 1.599 0 2.193-.08.639-.085 1.255-.28 1.755-.78s.695-1.116.78-1.754c.08-.595.08-1.336.08-2.193V7.904a1 1 0 00-.032-2h-1.904v-.936A1.968 1.968 0 0015.618 3h-1.936zm3.841 4.905h-5.745v2.872c0 .942.002 1.547.061 1.992.056.416.146.54.213.607.067.067.19.156.607.212.445.06 1.05.062 1.991.062.941 0 1.547-.002 1.992-.062.416-.056.54-.145.607-.212.067-.067.156-.19.212-.607.06-.445.062-1.05.062-1.992V7.905zm-1.936-2V5h-1.873v.905h1.873zm-.937 2.904a1 1 0 011 1v1.937a1 1 0 01-2 0V9.809a1 1 0 011-1zM6.13 4.142a1.065 1.065 0 10-2.13 0v2.992c0 2.944 0 5.262.243 7.073.25 1.858.774 3.341 1.94 4.508 1.167 1.167 2.65 1.69 4.509 1.94 1.81.244 4.129.244 7.073.243h1.784a1.065 1.065 0 100-2.13h-1.704c-3.042 0-5.217-.002-6.87-.224-1.621-.218-2.58-.63-3.285-1.335-.705-.705-1.117-1.664-1.335-3.286-.223-1.653-.225-3.827-.225-6.87v-2.91z"></path>
    </symbol>
  </defs>
  <use xlink:href="#v_delete_thread" fill="currentColor"></use>
</svg>