<svg xmlns:xlink="http://www.w3.org/1999/xlink"
  xmlns="http://www.w3.org/2000/svg" height="24" width="24">
  <defs>
    <symbol viewBox="0 0 24 24" id="v_delete">
      <path d="M8.002 5.5A2.497 2.497 0 0110.5 3.002h3A2.497 2.497 0 0115.997 5.5v1.002H20a.998.998 0 010 1.995h-.526l-1.15 9.009a3.997 3.997 0 01-3.965 3.491H9.64a3.997 3.997 0 01-3.965-3.491l-1.15-9.009H4a.997.997 0 110-1.995h4.002V5.5zm1.995 1.002h4.005V5.5a.502.502 0 00-.502-.503h-3a.502.502 0 00-.503.503v1.002zm-3.46 1.995l1.118 8.756c.128 1 .978 1.75 1.986 1.75h4.718c1.008 0 1.858-.75 1.986-1.75l1.118-8.756H6.537zM10 10.252c.55 0 .997.447.997.998v4.5a.997.997 0 11-1.995 0v-4.5c0-.551.447-.998.998-.998zm4 0c.55 0 .997.447.997.998v4.5a.998.998 0 01-1.995 0v-4.5c0-.551.447-.998.998-.998z"></path>
    </symbol>
  </defs>
  <use xlink:href="#v_delete" fill="currentColor"></use>
</svg>