<svg xmlns:xlink="http://www.w3.org/1999/xlink"
  xmlns="http://www.w3.org/2000/svg" height="24" width="24">
  <defs>
    <symbol viewBox="0 0 24 24" id="v_flag">
      <path fill-rule="evenodd" clip-rule="evenodd" d="M6.286 3.449c.6-.24 1.477-.447 2.714-.447 1.319 0 2.41.437 3.318.8l.053.022c.955.382 1.723.678 2.63.678 1.012 0 1.635-.168 1.973-.303a1.773 1.773 0 00.352-.184.998.998 0 011.672.735v9a.998.998 0 01-.292.705l-.02.019c-.05.048-.143.128-.285.223a3.738 3.738 0 01-.686.354c-.6.24-1.477.446-2.715.446-1.318 0-2.408-.436-3.317-.8l-.053-.02c-.956-.383-1.723-.68-2.63-.68-1.012 0-1.635.169-1.973.304l-.03.012V20a.998.998 0 01-1.994 0V4.75c0-.265.105-.518.292-.705l.02-.019c.05-.048.142-.129.284-.223.163-.109.388-.235.687-.354zm.712 1.864v6.91A8.352 8.352 0 019 12.002c1.319 0 2.41.436 3.318.8l.053.02c.955.383 1.723.68 2.63.68 1.012 0 1.635-.169 1.973-.304l.029-.012v-6.91c-.527.13-1.186.22-2.003.22-1.318 0-2.408-.436-3.317-.8l-.053-.02c-.956-.383-1.723-.68-2.63-.68-1.012 0-1.635.169-1.973.304a2.43 2.43 0 00-.03.012z"></path>
    </symbol>
  </defs>
  <use xlink:href="#v_flag" fill="currentColor"></use>
</svg>