<svg xmlns:xlink="http://www.w3.org/1999/xlink"
  xmlns="http://www.w3.org/2000/svg" height="24" width="24">
  <defs>
    <symbol viewBox="0 0 24 24" id="ui_sidebar_feed">
      <path fill-rule="evenodd" clip-rule="evenodd" d="M11.36 2.22a1 1 0 011.33.07c.932.925 1.885 1.573 2.85 2.21l.186.122c.89.586 1.824 1.2 2.637 2.013A8.975 8.975 0 0121 13a8.975 8.975 0 01-2.636 6.364m0 0A9 9 0 013 13c0-2.455 1.16-4.574 2.793-6.207a1 1 0 011.658.395 3.135 3.135 0 00.349.587c.09.12.2.251.333.388.287-1.942 1.118-4.246 3.226-5.942M6.361 9.179C5.5 10.326 5 11.618 5 13a7 7 0 0011.95 4.95l.001-.001a6.975 6.975 0 002.05-4.948V13a6.975 6.975 0 00-2.05-4.948h-.002c-.663-.664-1.438-1.175-2.37-1.79l-.14-.092c-.765-.505-1.607-1.07-2.457-1.809C10.38 6.051 10 8.321 10 10a1 1 0 01-1.447.894c-1.028-.514-1.728-1.15-2.192-1.715zM21 13v.002L20 13l1-.001z"></path>
    </symbol>
  </defs>
  <use xlink:href="#ui_sidebar_feed" fill="currentColor"></use>
</svg>