<svg xmlns:xlink="http://www.w3.org/1999/xlink" class="icon icon--ui_external" width="24" height="24" xmlns="http://www.w3.org/2000/svg"><defs><symbol viewBox="0 0 11 11" id="ui_external"><path d="M8.5 5a.5.5 0 01.5.5v5a.5.5 0 01-.5.5h-8a.5.5 0 01-.5-.5v-8A.5.5 0 01.5 2h5a.5.5 0 110 1H1v7h7V5.5a.5.5 0 01.5-.5zm2-5a.5.5 0 01.5.5v4a.5.5 0 01-1 0V1.707L4.854 6.854a.498.498 0 01-.708 0 .5.5 0 010-.708L9.293 1H6.5a.5.5 0 010-1h4z"></path></symbol></defs><use xlink:href="#ui_external" fill="#595959"></use></svg>