<svg xmlns:xlink="http://www.w3.org/1999/xlink"
  xmlns="http://www.w3.org/2000/svg" height="24" width="24">
  <defs>
    <symbol viewBox="0 0 24 24" id="v_maximize">
      <path fill-rule="evenodd" clip-rule="evenodd" d="M15 6a1 1 0 110-2h4a1 1 0 011 1v4a1 1 0 11-2 0V7.414l-3.293 3.293a1 1 0 01-1.414-1.414L16.586 6H15zM5 13a1 1 0 011 1v2.586l3.293-3.293a1 1 0 011.414 1.414L7.414 18H10a1 1 0 110 2H5a1 1 0 01-1-1v-5a1 1 0 011-1z"></path>
    </symbol>
  </defs>
  <use xlink:href="#v_maximize" fill="currentColor"></use>
</svg>