<svg xmlns:xlink="http://www.w3.org/1999/xlink" width="24" height="24"
  xmlns="http://www.w3.org/2000/svg">
  <defs>
    <symbol viewBox="0 0 10 10" id="ui_mention">
      <path fill-rule="evenodd" clip-rule="evenodd" d="M2.58 5A2.422 2.422 0 015 2.58 2.422 2.422 0 017.42 5a.807.807 0 001.612 0A4.037 4.037 0 005 .968 4.037 4.037 0 00.968 5 4.037 4.037 0 005 9.032c1.077 0 2.09-.42 2.851-1.18l.685.684A4.967 4.967 0 015 10c-2.757 0-5-2.243-5-5s2.243-5 5-5 5 2.243 5 5c0 .978-.796 1.774-1.774 1.774-.46 0-.879-.175-1.194-.463A2.419 2.419 0 012.58 5zm.968 0c0 .8.652 1.452 1.452 1.452.8 0 1.452-.652 1.452-1.452 0-.8-.652-1.452-1.452-1.452-.8 0-1.452.652-1.452 1.452z"></path>
    </symbol>
  </defs>
  <use xlink:href="#ui_mention" fill="currentColor"></use>
</svg>