<svg xmlns:xlink="http://www.w3.org/1999/xlink"
  xmlns="http://www.w3.org/2000/svg" height="24" width="24">
  <defs>
    <symbol viewBox="0 0 24 24" id="v_minimize">
      <path fill-rule="evenodd" clip-rule="evenodd" d="M18.293 4.293a1 1 0 111.414 1.414L16.414 9H18a1 1 0 110 2h-4a1 1 0 01-1-1V6a1 1 0 112 0v1.586l3.293-3.293zM5 15a1 1 0 110-2h5a1 1 0 011 1v5a1 1 0 11-2 0v-2.586l-3.293 3.293a1 1 0 01-1.414-1.414L7.586 15H5z"></path>
    </symbol>
  </defs>
  <use xlink:href="#v_minimize" fill="currentColor"></use>
</svg>