<svg xmlns:xlink="http://www.w3.org/1999/xlink"
  xmlns="http://www.w3.org/2000/svg" data-v-1a27d7bb="" height="24" width="24">
  <defs>
    <symbol viewBox="0 0 24 24" id="v_my_feed">
      <path fill-rule="evenodd" clip-rule="evenodd" d="M6 5a2 2 0 00-2 2v10a2 2 0 002 2h5a1 1 0 110 2H6a4 4 0 01-4-4V7a4 4 0 014-4h12a4 4 0 014 4v4a1 1 0 11-2 0V7a2 2 0 00-2-2H6zm16.632 9.225a1 1 0 01.143 1.407l-4.893 6a1 1 0 01-1.48.077l-3.107-3.085a1 1 0 011.41-1.42l2.324 2.31 4.196-5.146a1 1 0 011.407-.143z"></path>
    </symbol>
  </defs>
  <use xlink:href="#v_my_feed" fill="currentColor"></use>
</svg>