<svg xmlns:xlink="http://www.w3.org/1999/xlink" xmlns="http://www.w3.org/2000/svg" height="24" width="24" class="icon icon--v_pencil"><defs><symbol viewBox="0 0 24 24" id="v_pencil"><path fill-rule="evenodd" d="M5.868 18.155l.569-1.983 8.891-8.892 1.414 1.415-8.89 8.89-1.984.57zM18.156 7.28l.643-.642-1.414-1.414-.643.642 1.414 1.414zm-13.57 8.091a1 1 0 01.254-.43L15.97 3.808a2 2 0 012.83 0l1.413 1.415a2 2 0 010 2.828l-11.13 11.13a1 1 0 01-.432.255l-3.966 1.138a1 1 0 01-1.237-1.237l1.138-3.966z" clip-rule="evenodd"></path></symbol></defs><use xlink:href="#v_pencil"></use></svg>