<svg xmlns:xlink="http://www.w3.org/1999/xlink"
  xmlns="http://www.w3.org/2000/svg" height="24" width="24">
  <defs>
    <symbol viewBox="0 0 24 24" id="v_pen">
      <path fill-rule="evenodd" clip-rule="evenodd" d="M16.172 3.586a2 2 0 012.828 0L20.414 5a2 2 0 010 2.829l-1.697 1.696L8.391 19.851a2 2 0 01-1.053.553l-3.157.58a1 1 0 01-1.165-1.164l.58-3.159a2 2 0 01.553-1.053L16.172 3.586zm1.838 3.818l.99-.99L17.586 5l-.99.99 1.414 1.414zm-2.828 0l-9.619 9.618-.318 1.733 1.732-.318 9.619-9.619-1.414-1.414z"></path>
    </symbol>
  </defs>
  <use xlink:href="#v_pen" fill="currentColor"></use>
</svg>