<svg xmlns:xlink="http://www.w3.org/1999/xlink"
  xmlns="http://www.w3.org/2000/svg" height="13" width="13">
  <defs>
    <symbol viewBox="0 0 16 16" id="ui_pin_stroked">
      <path fill-rule="evenodd" clip-rule="evenodd" d="M9.487.72a1.625 1.625 0 012.294.008l3.49 3.51.002.001c.634.633.636 1.658.006 2.294-.168.17-.358.282-.542.357-1.4.674-2.1 1.37-2.507 2.184-.503 1.006-.867 2.191-.867 4.179a1.62 1.62 0 01-1.002 1.498l-.288-.693.289.692a1.617 1.617 0 01-1.775-.354l-2.37-2.37L1.45 15.6A.75.75 0 01.4 14.55l3.574-4.766-2.37-2.37-.002-.002a1.626 1.626 0 01-.354-1.77l.001-.003a1.629 1.629 0 011.499-1c1.985 0 3.172-.364 4.198-.87.814-.407 1.51-1.108 2.184-2.506.073-.18.185-.37.354-.54l.003-.002zm1.056 1.065a.146.146 0 00-.025.047.757.757 0 01-.024.056c-.776 1.619-1.678 2.624-2.879 3.224l-.003.002c-1.24.612-2.656 1.025-4.864 1.025a.116.116 0 00-.045.009.129.129 0 00-.07.068.125.125 0 00.025.131l.003.003 2.834 2.834a.75.75 0 01.07.98l-.816 1.088 1.088-.816a.75.75 0 01.98.07l2.84 2.838a.11.11 0 00.035.021l.002.001c.02.008.035.01.045.01.01 0 .025-.002.044-.01h.001a.12.12 0 00.068-.065l.002-.007a.112.112 0 00.009-.041c0-2.207.412-3.624 1.025-4.85.6-1.2 1.605-2.102 3.225-2.878a.766.766 0 01.058-.024.12.12 0 00.042-.024.124.124 0 000-.176l-.002-.002-3.493-3.513a.125.125 0 00-.175 0z"></path>
    </symbol>
  </defs>
  <use xlink:href="#ui_pin_stroked" fill="currentColor"></use>
</svg>