<svg xmlns:xlink="http://www.w3.org/1999/xlink"
  xmlns="http://www.w3.org/2000/svg" height="24" width="24">
  <defs>
    <symbol viewBox="0 0 24 24" id="v_login">
      <path fill-rule="evenodd" clip-rule="evenodd" d="M7.5 7.5a4.5 4.5 0 119 0 4.5 4.5 0 01-9 0zM12 5a2.5 2.5 0 100 5 2.5 2.5 0 000-5zm-5.576 9.553C7.884 13.523 9.85 13 12 13c2.15 0 4.116.524 5.576 1.553C19.061 15.598 20 17.162 20 19.09c0 .62-.169 1.345-.656 1.933-.514.62-1.288.976-2.253.976H6.909c-.965 0-1.74-.356-2.253-.976C4.169 20.436 4 19.711 4 19.091c0-1.93.94-3.492 2.424-4.539zm1.152 1.634C6.561 16.903 6 17.885 6 19.091c0 .288.081.519.196.658.089.107.27.251.713.251h10.182c.444 0 .624-.144.713-.251.115-.14.196-.37.196-.658 0-1.206-.56-2.188-1.576-2.904C15.384 15.454 13.85 15 12 15c-1.85 0-3.384.454-4.424 1.187z"></path>
    </symbol>
  </defs>
  <use xlink:href="#v_login" fill="currentColor"></use>
</svg>