<svg xmlns:xlink="http://www.w3.org/1999/xlink"
  xmlns="http://www.w3.org/2000/svg" height="24" width="24">
  <defs>
    <symbol viewBox="0 0 20 20" id="v_follow">
      <path fill-rule="evenodd" clip-rule="evenodd" d="M5.61 10.9c1.113-.611 2.578-.9 4.375-.9a.833.833 0 110 1.667c-1.644 0-2.797.268-3.573.693-.748.41-1.182.985-1.385 1.726-.06.22-.018.411.1.547.12.14.45.367 1.257.367h2.767l.001.833v.833H6.384c-1.101 0-1.972-.315-2.515-.94-.546-.628-.63-1.42-.45-2.08.324-1.179 1.05-2.12 2.191-2.747zm4.375 4.933c0 .46-.373.833-.833.833V15c.46 0 .833.373.833.834zm-3.318-10a3.333 3.333 0 116.666 0 3.333 3.333 0 01-6.667 0zM10 4.167A1.667 1.667 0 1010 7.5a1.667 1.667 0 000-3.333zm5 6.666c.46 0 .833.373.833.834v1.666H17.5a.833.833 0 110 1.667h-1.667v1.667a.833.833 0 01-1.667 0V15H12.5a.833.833 0 010-1.667h1.666v-1.666c0-.46.374-.834.834-.834z"></path>
    </symbol>
  </defs>
  <use xlink:href="#v_follow" fill="currentColor"></use>
</svg>